<svg xmlns="http://www.w3.org/2000/svg" viewBox="0 0 64 64" width="64" height="64">
  <defs>
    <linearGradient id="flameGrad" x1="0%" y1="100%" x2="100%" y2="0%">
      <stop offset="0%" stop-color="#ea580c"/>
      <stop offset="50%" stop-color="#f97316"/>
      <stop offset="100%" stop-color="#fbbf24"/>
    </linearGradient>
    <radialGradient id="glowGrad" cx="50%" cy="50%" r="50%">
      <stop offset="0%" stop-color="#f97316" stop-opacity="0.3"/>
      <stop offset="100%" stop-color="#f97316" stop-opacity="0"/>
    </radialGradient>
  </defs>
  <!-- Background Disc -->
  <rect width="64" height="64" rx="16" fill="#090a0f"/>
  <rect x="1" y="1" width="62" height="62" rx="15" fill="none" stroke="#1f2430" stroke-width="1.5"/>
  <circle cx="32" cy="32" r="24" fill="url(#glowGrad)"/>

  <!-- Geometric Dragon Flame Symbol -->
  <path d="M32 10 C34 18 42 22 42 30 C42 38 36 44 32 52 C28 44 22 38 22 30 C22 22 30 18 32 10 Z" fill="url(#flameGrad)"/>
  <!-- Inner Dynamic Flame Core -->
  <path d="M32 24 C34 28 38 31 38 36 C38 41 35 44 32 48 C29 44 26 41 26 36 C26 31 30 28 32 24 Z" fill="#fffbeb"/>
  <!-- Code Terminal Prompt Mark -->
  <path d="M25 36 L28 39 L25 42" stroke="#090a0f" stroke-width="2" stroke-linecap="round" stroke-linejoin="round" fill="none"/>
</svg>
